<!-- icon666.com - MILLIONS vector ICONS FREE --><svg viewBox="0 0 496 496" xmlns="http://www.w3.org/2000/svg"><path d="m80.101562 326.21875c-44.042968 0-79.871093-35.085938-79.871093-78.21875s35.828125-78.21875 79.871093-78.21875c26.421876 0 51.351563 13.105469 66.132813 34.492188h256.738281c2.351563 0 4.582032 1.035156 6.101563 2.828124l30.261719 35.726563c2.523437 2.984375 2.523437 7.359375 0 10.34375l-30.261719 35.726563c-1.519531 1.792968-3.75 2.828124-6.101563 2.828124h-256.738281c-14.78125 21.382813-39.710937 34.492188-66.132813 34.492188zm0-140.4375c-35.21875 0-63.871093 27.910156-63.871093 62.21875s28.652343 62.21875 63.871093 62.21875c22.417969 0 43.472657-11.742188 54.949219-30.644531 1.449219-2.390625 4.046875-3.847657 6.835938-3.847657h257.371093l23.488282-27.726562-23.480469-27.726562h-257.375c-2.792969 0-5.386719-1.457032-6.835937-3.847657-11.476563-18.902343-32.535157-30.644531-54.953126-30.644531zm0 0" fill="#000000" style="fill: rgb(125, 124, 120);"></path><path d="m103.765625 270.785156h-37.65625c.417969-.710937.878906-1.378906 1.367187-1.996094 2.761719-3.375 8.128907-7.203124 15.9375-11.398437 7.777344-4.1875 12.960938-7.945313 15.855469-11.507813 2.984375-3.667968 4.496094-8.355468 4.496094-13.9375 0-6.601562-2.34375-12.085937-6.964844-16.28125-4.617187-4.1875-10.574219-6.3125-17.703125-6.3125-8.300781 0-14.902344 2.421876-19.621094 7.191407-4.710937 4.761719-7.027343 11.34375-6.886718 19.570312l.035156 1.960938h12.707031l.058594-1.9375c.152344-4.976563 1.355469-8.816407 3.582031-11.421875 2.140625-2.511719 5.046875-3.734375 8.882813-3.734375 3.761719 0 6.730469.996093 9.078125 3.046875 2.277344 1.984375 3.386718 4.484375 3.386718 7.648437 0 3.136719-.753906 5.597657-2.300781 7.527344-1.640625 2.050781-4.875 4.398437-9.613281 6.972656-10.660156 5.726563-17.757812 10.914063-21.703125 15.839844-4.015625 5.011719-6.050781 11.496094-6.050781 19.273437v2h53.117187v-12.503906zm0 0" fill="#000000" style="fill: rgb(125, 124, 120);"></path><path d="m80.335938 496c-44.039063 0-79.867188-35.089844-79.867188-78.21875 0-43.132812 35.828125-78.222656 79.867188-78.222656 26.425781 0 51.351562 13.109375 66.136718 34.492187h311.265625c2.355469 0 4.585938 1.039063 6.105469 2.828125l30.261719 35.730469c2.523437 2.984375 2.523437 7.359375 0 10.34375l-30.261719 35.726563c-1.519531 1.792968-3.75 2.828124-6.105469 2.828124h-311.265625c-14.785156 21.382813-39.710937 34.492188-66.136718 34.492188zm0-140.4375c-35.214844 0-63.867188 27.914062-63.867188 62.222656s28.652344 62.214844 63.867188 62.214844c22.421874 0 43.476562-11.742188 54.953124-30.644531 1.445313-2.390625 4.042969-3.847657 6.835938-3.847657h311.902344l23.484375-27.726562-23.484375-27.730469h-311.898438c-2.796875 0-5.390625-1.453125-6.835937-3.847656-11.480469-18.898437-32.535157-30.640625-54.957031-30.640625zm0 0" fill="#000000" style="fill: rgb(125, 124, 120);"></path><path d="m97.777344 415.910156c-.605469-.46875-1.253906-.914062-1.9375-1.339844 4.632812-3.710937 6.980468-8.632812 6.980468-14.625 0-6.050781-2.351562-10.992187-6.992187-14.699218-4.511719-3.59375-10.476563-5.417969-17.726563-5.417969-7.746093 0-13.859374 2.222656-18.15625 6.609375-4.289062 4.363281-6.464843 10.542969-6.464843 18.363281v2h12.710937l.089844-1.914062c.210938-4.574219 1.296875-8 3.226562-10.179688 1.859376-2.089843 4.539063-3.109375 8.191407-3.109375 3.554687 0 6.351562.875 8.554687 2.675782 2.09375 1.707031 3.113282 3.851562 3.113282 6.5625 0 2.902343-.941407 5.074218-2.917969 6.660156-1.484375 1.246094-3.421875 2.003906-5.9375 2.316406-1.402344.183594-2.835938.273438-4.253907.273438-1.695312 0-2.53125-.105469-2.929687-.195313l-2.503906-.550781v12.726562l2.578125-.667968c.054687-.015626.550781-.125 2.480468-.125 1.472657 0 3.027344.050781 4.648438.140624 3.199219.230469 5.726562 1.203126 7.722656 2.984376 2.285156 2.015624 3.398438 4.710937 3.398438 8.234374 0 3.320313-1.160156 5.953126-3.554688 8.050782-2.453125 2.15625-5.558594 3.207031-9.480468 3.207031-4.523438 0-7.839844-.992187-9.855469-2.949219-2.0625-1.992187-3.355469-5.503906-3.835938-10.4375l-.179687-1.8125h-13.347656l.101562 2.089844c.386719 8.261719 2.84375 14.546875 7.296875 18.667969 4.460937 4.121093 11.035156 6.214843 19.554687 6.214843 7.785157 0 14.273438-2.277343 19.289063-6.773437 5.054687-4.539063 7.621094-10.429687 7.621094-17.519531-.003907-6.449219-2.527344-11.652344-7.484375-15.460938zm0 0" fill="#000000" style="fill: rgb(125, 124, 120);"></path><path d="m79.867188 156.4375c-44.039063 0-79.867188-35.089844-79.867188-78.21875 0-43.125 35.828125-78.21875 79.867188-78.21875 26.425781 0 51.351562 13.109375 66.136718 34.492188h206.300782c2.351562 0 4.582031 1.035156 6.101562 2.828124l30.261719 35.726563c2.523437 2.984375 2.523437 7.359375 0 10.34375l-30.261719 35.730469c-1.519531 1.789062-3.75 2.828125-6.101562 2.828125h-206.304688c-14.78125 21.378906-39.707031 34.488281-66.132812 34.488281zm0-140.4375c-35.214844 0-63.867188 27.910156-63.867188 62.21875s28.652344 62.222656 63.867188 62.222656c22.421874 0 43.476562-11.746094 54.953124-30.644531 1.449219-2.394531 4.042969-3.847656 6.835938-3.847656h206.9375l23.480469-27.730469-23.480469-27.726562h-206.933594c-2.796875 0-5.386718-1.460938-6.835937-3.847657-11.480469-18.902343-32.535157-30.644531-54.957031-30.644531zm0 0" fill="#000000" style="fill: rgb(125, 124, 120);"></path><path d="m75.054688 116.273438h13.597656v-73.941407h-10.859375l-.453125 1.398438c-1.351563 4.160156-3.425782 7.253906-6.15625 9.179687-2.695313 1.902344-6.351563 2.820313-10.789063 2.734375l-2.089843-.039062v11.035156h16.75zm0 0" fill="#000000" style="fill: rgb(125, 124, 120);"></path></svg>